<mxfile host="65bd71144e">
    <diagram id="7MFBg4RwZc-_fx3xFr9S" name="Page-1">
        <mxGraphModel dx="844" dy="354" grid="1" gridSize="10" guides="1" tooltips="1" connect="1" arrows="1" fold="1" page="1" pageScale="1" pageWidth="1100" pageHeight="850" math="0" shadow="0">
            <root>
                <mxCell id="0"/>
                <mxCell id="1" parent="0"/>
                <mxCell id="2" value="" style="whiteSpace=wrap;html=1;aspect=fixed;" parent="1" vertex="1">
                    <mxGeometry x="110" y="25" width="250" height="250" as="geometry"/>
                </mxCell>
                <mxCell id="3" value="" style="rounded=1;whiteSpace=wrap;html=1;" parent="1" vertex="1">
                    <mxGeometry x="110" y="30" width="120" height="60" as="geometry"/>
                </mxCell>
                <mxCell id="4" value="" style="rounded=0;whiteSpace=wrap;html=1;" parent="1" vertex="1">
                    <mxGeometry x="240" y="30" width="120" height="60" as="geometry"/>
                </mxCell>
                <mxCell id="5" value="" style="rounded=0;whiteSpace=wrap;html=1;" parent="1" vertex="1">
                    <mxGeometry x="110" y="115" width="120" height="60" as="geometry"/>
                </mxCell>
                <mxCell id="6" value="" style="rounded=0;whiteSpace=wrap;html=1;" parent="1" vertex="1">
                    <mxGeometry x="240" y="110" width="120" height="60" as="geometry"/>
                </mxCell>
                <mxCell id="7" value="" style="rounded=0;whiteSpace=wrap;html=1;" parent="1" vertex="1">
                    <mxGeometry x="110" y="200" width="120" height="60" as="geometry"/>
                </mxCell>
                <mxCell id="8" value="" style="rounded=0;whiteSpace=wrap;html=1;" parent="1" vertex="1">
                    <mxGeometry x="240" y="200" width="120" height="60" as="geometry"/>
                </mxCell>
                <mxCell id="9" value="" style="rhombus;whiteSpace=wrap;html=1;" parent="1" vertex="1">
                    <mxGeometry x="110" y="35" width="50" height="50" as="geometry"/>
                </mxCell>
                <mxCell id="10" value="" style="rhombus;whiteSpace=wrap;html=1;" parent="1" vertex="1">
                    <mxGeometry x="170" y="35" width="50" height="50" as="geometry"/>
                </mxCell>
                <mxCell id="11" value="" style="rhombus;whiteSpace=wrap;html=1;" parent="1" vertex="1">
                    <mxGeometry x="240" y="30" width="50" height="50" as="geometry"/>
                </mxCell>
                <mxCell id="12" value="" style="rhombus;whiteSpace=wrap;html=1;" parent="1" vertex="1">
                    <mxGeometry x="300" y="115" width="50" height="50" as="geometry"/>
                </mxCell>
                <mxCell id="13" value="" style="rhombus;whiteSpace=wrap;html=1;" parent="1" vertex="1">
                    <mxGeometry x="240" y="120" width="50" height="50" as="geometry"/>
                </mxCell>
                <mxCell id="14" value="" style="rhombus;whiteSpace=wrap;html=1;" parent="1" vertex="1">
                    <mxGeometry x="180" y="125" width="50" height="50" as="geometry"/>
                </mxCell>
                <mxCell id="15" value="" style="rhombus;whiteSpace=wrap;html=1;" parent="1" vertex="1">
                    <mxGeometry x="110" y="120" width="50" height="50" as="geometry"/>
                </mxCell>
                <mxCell id="16" value="" style="rhombus;whiteSpace=wrap;html=1;" parent="1" vertex="1">
                    <mxGeometry x="300" y="30" width="50" height="50" as="geometry"/>
                </mxCell>
                <mxCell id="17" value="" style="rhombus;whiteSpace=wrap;html=1;" parent="1" vertex="1">
                    <mxGeometry x="300" y="200" width="50" height="50" as="geometry"/>
                </mxCell>
                <mxCell id="18" value="" style="rhombus;whiteSpace=wrap;html=1;" parent="1" vertex="1">
                    <mxGeometry x="240" y="200" width="50" height="50" as="geometry"/>
                </mxCell>
                <mxCell id="19" value="" style="rhombus;whiteSpace=wrap;html=1;" parent="1" vertex="1">
                    <mxGeometry x="180" y="205" width="50" height="50" as="geometry"/>
                </mxCell>
                <mxCell id="20" value="" style="rhombus;whiteSpace=wrap;html=1;" parent="1" vertex="1">
                    <mxGeometry x="110" y="205" width="50" height="50" as="geometry"/>
                </mxCell>
                <mxCell id="22" value="" style="shape=step;perimeter=stepPerimeter;whiteSpace=wrap;html=1;fixedSize=1;" parent="1" vertex="1">
                    <mxGeometry x="400" y="220" width="120" height="80" as="geometry"/>
                </mxCell>
            </root>
        </mxGraphModel>
    </diagram>
    <diagram id="K8_ST8wuEfcmDDu_kg1_" name="Page-2">
        <mxGraphModel dx="1298" dy="545" grid="1" gridSize="10" guides="1" tooltips="1" connect="1" arrows="1" fold="1" page="1" pageScale="1" pageWidth="1100" pageHeight="850" math="0" shadow="0">
            <root>
                <mxCell id="0"/>
                <mxCell id="1" parent="0"/>
                <mxCell id="Jx8IvY4E2qixElgRUIaF-4" value="" style="edgeStyle=none;html=1;" edge="1" parent="1" source="Jx8IvY4E2qixElgRUIaF-1" target="Jx8IvY4E2qixElgRUIaF-3">
                    <mxGeometry relative="1" as="geometry"/>
                </mxCell>
                <mxCell id="Jx8IvY4E2qixElgRUIaF-1" value="" style="shape=datastore;whiteSpace=wrap;html=1;" vertex="1" parent="1">
                    <mxGeometry x="40" y="240" width="60" height="60" as="geometry"/>
                </mxCell>
                <mxCell id="Jx8IvY4E2qixElgRUIaF-6" value="" style="edgeStyle=none;html=1;" edge="1" parent="1" source="Jx8IvY4E2qixElgRUIaF-3" target="Jx8IvY4E2qixElgRUIaF-5">
                    <mxGeometry relative="1" as="geometry"/>
                </mxCell>
                <mxCell id="Jx8IvY4E2qixElgRUIaF-3" value="Users" style="whiteSpace=wrap;html=1;" vertex="1" parent="1">
                    <mxGeometry x="150" y="180" width="70" height="40" as="geometry"/>
                </mxCell>
                <mxCell id="Jx8IvY4E2qixElgRUIaF-9" value="" style="edgeStyle=none;html=1;" edge="1" parent="1" source="Jx8IvY4E2qixElgRUIaF-5" target="Jx8IvY4E2qixElgRUIaF-8">
                    <mxGeometry relative="1" as="geometry"/>
                </mxCell>
                <mxCell id="Jx8IvY4E2qixElgRUIaF-11" value="" style="edgeStyle=none;html=1;" edge="1" parent="1" source="Jx8IvY4E2qixElgRUIaF-5" target="Jx8IvY4E2qixElgRUIaF-10">
                    <mxGeometry relative="1" as="geometry"/>
                </mxCell>
                <mxCell id="Jx8IvY4E2qixElgRUIaF-5" value="Email" style="whiteSpace=wrap;html=1;" vertex="1" parent="1">
                    <mxGeometry x="280" y="120" width="75" height="40" as="geometry"/>
                </mxCell>
                <mxCell id="Jx8IvY4E2qixElgRUIaF-8" value="Credentials" style="whiteSpace=wrap;html=1;" vertex="1" parent="1">
                    <mxGeometry x="440" y="20" width="80" height="40" as="geometry"/>
                </mxCell>
                <mxCell id="Jx8IvY4E2qixElgRUIaF-14" value="" style="edgeStyle=none;html=1;" edge="1" parent="1" source="Jx8IvY4E2qixElgRUIaF-10" target="Jx8IvY4E2qixElgRUIaF-13">
                    <mxGeometry relative="1" as="geometry"/>
                </mxCell>
                <mxCell id="Jx8IvY4E2qixElgRUIaF-10" value="Projects" style="whiteSpace=wrap;html=1;" vertex="1" parent="1">
                    <mxGeometry x="440" y="140" width="90" height="50" as="geometry"/>
                </mxCell>
                <mxCell id="Jx8IvY4E2qixElgRUIaF-16" value="" style="edgeStyle=none;html=1;" edge="1" parent="1" source="Jx8IvY4E2qixElgRUIaF-13" target="Jx8IvY4E2qixElgRUIaF-15">
                    <mxGeometry relative="1" as="geometry"/>
                </mxCell>
                <mxCell id="Jx8IvY4E2qixElgRUIaF-13" value="Name" style="whiteSpace=wrap;html=1;" vertex="1" parent="1">
                    <mxGeometry x="595" y="160" width="85" height="40" as="geometry"/>
                </mxCell>
                <mxCell id="Jx8IvY4E2qixElgRUIaF-15" value="Details" style="whiteSpace=wrap;html=1;" vertex="1" parent="1">
                    <mxGeometry x="742.5" y="180" width="87.5" height="50" as="geometry"/>
                </mxCell>
                <mxCell id="Jx8IvY4E2qixElgRUIaF-17" value="" style="edgeStyle=none;html=1;" edge="1" parent="1" source="Jx8IvY4E2qixElgRUIaF-18" target="Jx8IvY4E2qixElgRUIaF-20">
                    <mxGeometry relative="1" as="geometry"/>
                </mxCell>
                <mxCell id="Jx8IvY4E2qixElgRUIaF-18" value="" style="shape=datastore;whiteSpace=wrap;html=1;" vertex="1" parent="1">
                    <mxGeometry x="40" y="645" width="60" height="60" as="geometry"/>
                </mxCell>
                <mxCell id="Jx8IvY4E2qixElgRUIaF-19" value="" style="edgeStyle=none;html=1;" edge="1" parent="1" source="Jx8IvY4E2qixElgRUIaF-20" target="Jx8IvY4E2qixElgRUIaF-23">
                    <mxGeometry relative="1" as="geometry"/>
                </mxCell>
                <mxCell id="Jx8IvY4E2qixElgRUIaF-20" value="Users" style="whiteSpace=wrap;html=1;" vertex="1" parent="1">
                    <mxGeometry x="150" y="585" width="70" height="40" as="geometry"/>
                </mxCell>
                <mxCell id="Jx8IvY4E2qixElgRUIaF-21" value="" style="edgeStyle=none;html=1;" edge="1" parent="1" source="Jx8IvY4E2qixElgRUIaF-23" target="Jx8IvY4E2qixElgRUIaF-24">
                    <mxGeometry relative="1" as="geometry"/>
                </mxCell>
                <mxCell id="Jx8IvY4E2qixElgRUIaF-22" value="" style="edgeStyle=none;html=1;" edge="1" parent="1" source="Jx8IvY4E2qixElgRUIaF-23" target="Jx8IvY4E2qixElgRUIaF-26">
                    <mxGeometry relative="1" as="geometry"/>
                </mxCell>
                <mxCell id="Jx8IvY4E2qixElgRUIaF-23" value="a@gmail.com" style="whiteSpace=wrap;html=1;" vertex="1" parent="1">
                    <mxGeometry x="280" y="525" width="75" height="40" as="geometry"/>
                </mxCell>
                <mxCell id="Jx8IvY4E2qixElgRUIaF-24" value="name, email" style="whiteSpace=wrap;html=1;" vertex="1" parent="1">
                    <mxGeometry x="440" y="425" width="80" height="40" as="geometry"/>
                </mxCell>
                <mxCell id="Jx8IvY4E2qixElgRUIaF-25" value="" style="edgeStyle=none;html=1;" edge="1" parent="1" source="Jx8IvY4E2qixElgRUIaF-26" target="Jx8IvY4E2qixElgRUIaF-28">
                    <mxGeometry relative="1" as="geometry"/>
                </mxCell>
                <mxCell id="Jx8IvY4E2qixElgRUIaF-33" value="" style="edgeStyle=none;html=1;" edge="1" parent="1" source="Jx8IvY4E2qixElgRUIaF-26" target="Jx8IvY4E2qixElgRUIaF-32">
                    <mxGeometry relative="1" as="geometry"/>
                </mxCell>
                <mxCell id="Jx8IvY4E2qixElgRUIaF-26" value="Projects" style="whiteSpace=wrap;html=1;" vertex="1" parent="1">
                    <mxGeometry x="440" y="545" width="90" height="50" as="geometry"/>
                </mxCell>
                <mxCell id="Jx8IvY4E2qixElgRUIaF-27" value="" style="edgeStyle=none;html=1;" edge="1" parent="1" source="Jx8IvY4E2qixElgRUIaF-28" target="Jx8IvY4E2qixElgRUIaF-29">
                    <mxGeometry relative="1" as="geometry"/>
                </mxCell>
                <mxCell id="Jx8IvY4E2qixElgRUIaF-28" value="floods" style="whiteSpace=wrap;html=1;" vertex="1" parent="1">
                    <mxGeometry x="595" y="565" width="85" height="40" as="geometry"/>
                </mxCell>
                <mxCell id="Jx8IvY4E2qixElgRUIaF-29" value="Details" style="whiteSpace=wrap;html=1;" vertex="1" parent="1">
                    <mxGeometry x="742.5" y="585" width="87.5" height="50" as="geometry"/>
                </mxCell>
                <mxCell id="Jx8IvY4E2qixElgRUIaF-35" value="" style="edgeStyle=none;html=1;" edge="1" parent="1" source="Jx8IvY4E2qixElgRUIaF-32" target="Jx8IvY4E2qixElgRUIaF-34">
                    <mxGeometry relative="1" as="geometry"/>
                </mxCell>
                <mxCell id="Jx8IvY4E2qixElgRUIaF-32" value="Drought" style="whiteSpace=wrap;html=1;" vertex="1" parent="1">
                    <mxGeometry x="530" y="705" width="120" height="60" as="geometry"/>
                </mxCell>
                <mxCell id="Jx8IvY4E2qixElgRUIaF-34" value="Details" style="whiteSpace=wrap;html=1;" vertex="1" parent="1">
                    <mxGeometry x="730" y="705" width="120" height="60" as="geometry"/>
                </mxCell>
            </root>
        </mxGraphModel>
    </diagram>
    <diagram id="fYyiv0efCW7I_cv7mlFo" name="Page-3">
        <mxGraphModel dx="1206" dy="506" grid="1" gridSize="10" guides="1" tooltips="1" connect="1" arrows="1" fold="1" page="1" pageScale="1" pageWidth="1100" pageHeight="850" math="0" shadow="0">
            <root>
                <mxCell id="0"/>
                <mxCell id="1" parent="0"/>
                <mxCell id="UIkB7LRc2GK9lbn_VJFY-1" value="" style="edgeStyle=none;html=1;" edge="1" parent="1" source="UIkB7LRc2GK9lbn_VJFY-2" target="UIkB7LRc2GK9lbn_VJFY-4">
                    <mxGeometry relative="1" as="geometry"/>
                </mxCell>
                <mxCell id="UIkB7LRc2GK9lbn_VJFY-2" value="" style="shape=datastore;whiteSpace=wrap;html=1;" vertex="1" parent="1">
                    <mxGeometry x="60" y="410" width="60" height="60" as="geometry"/>
                </mxCell>
                <mxCell id="UIkB7LRc2GK9lbn_VJFY-3" value="" style="edgeStyle=none;html=1;" edge="1" parent="1" source="UIkB7LRc2GK9lbn_VJFY-4" target="UIkB7LRc2GK9lbn_VJFY-7">
                    <mxGeometry relative="1" as="geometry"/>
                </mxCell>
                <mxCell id="UIkB7LRc2GK9lbn_VJFY-4" value="Users" style="whiteSpace=wrap;html=1;" vertex="1" parent="1">
                    <mxGeometry x="170" y="350" width="70" height="40" as="geometry"/>
                </mxCell>
                <mxCell id="UIkB7LRc2GK9lbn_VJFY-5" value="" style="edgeStyle=none;html=1;" edge="1" parent="1" source="UIkB7LRc2GK9lbn_VJFY-7" target="UIkB7LRc2GK9lbn_VJFY-8">
                    <mxGeometry relative="1" as="geometry"/>
                </mxCell>
                <mxCell id="UIkB7LRc2GK9lbn_VJFY-6" value="" style="edgeStyle=none;html=1;" edge="1" parent="1" source="UIkB7LRc2GK9lbn_VJFY-7" target="UIkB7LRc2GK9lbn_VJFY-11">
                    <mxGeometry relative="1" as="geometry"/>
                </mxCell>
                <mxCell id="UIkB7LRc2GK9lbn_VJFY-21" value="" style="edgeStyle=none;html=1;" edge="1" parent="1" source="UIkB7LRc2GK9lbn_VJFY-7" target="UIkB7LRc2GK9lbn_VJFY-20">
                    <mxGeometry relative="1" as="geometry"/>
                </mxCell>
                <mxCell id="UIkB7LRc2GK9lbn_VJFY-7" value="a@gmail.com" style="whiteSpace=wrap;html=1;" vertex="1" parent="1">
                    <mxGeometry x="300" y="290" width="75" height="40" as="geometry"/>
                </mxCell>
                <mxCell id="UIkB7LRc2GK9lbn_VJFY-8" value="name, email, avatar" style="whiteSpace=wrap;html=1;" vertex="1" parent="1">
                    <mxGeometry x="460" y="190" width="80" height="40" as="geometry"/>
                </mxCell>
                <mxCell id="UIkB7LRc2GK9lbn_VJFY-9" value="" style="edgeStyle=none;html=1;" edge="1" parent="1" source="UIkB7LRc2GK9lbn_VJFY-11" target="UIkB7LRc2GK9lbn_VJFY-13">
                    <mxGeometry relative="1" as="geometry"/>
                </mxCell>
                <mxCell id="UIkB7LRc2GK9lbn_VJFY-10" value="" style="edgeStyle=none;html=1;" edge="1" parent="1" source="UIkB7LRc2GK9lbn_VJFY-11" target="UIkB7LRc2GK9lbn_VJFY-16">
                    <mxGeometry relative="1" as="geometry"/>
                </mxCell>
                <mxCell id="UIkB7LRc2GK9lbn_VJFY-11" value="Projects" style="whiteSpace=wrap;html=1;" vertex="1" parent="1">
                    <mxGeometry x="460" y="310" width="90" height="50" as="geometry"/>
                </mxCell>
                <mxCell id="UIkB7LRc2GK9lbn_VJFY-12" value="" style="edgeStyle=none;html=1;" edge="1" parent="1" source="UIkB7LRc2GK9lbn_VJFY-13" target="UIkB7LRc2GK9lbn_VJFY-14">
                    <mxGeometry relative="1" as="geometry"/>
                </mxCell>
                <mxCell id="UIkB7LRc2GK9lbn_VJFY-28" value="" style="edgeStyle=none;html=1;" edge="1" parent="1" source="UIkB7LRc2GK9lbn_VJFY-13" target="UIkB7LRc2GK9lbn_VJFY-27">
                    <mxGeometry relative="1" as="geometry"/>
                </mxCell>
                <mxCell id="UIkB7LRc2GK9lbn_VJFY-13" value="floods" style="whiteSpace=wrap;html=1;" vertex="1" parent="1">
                    <mxGeometry x="615" y="330" width="85" height="40" as="geometry"/>
                </mxCell>
                <mxCell id="UIkB7LRc2GK9lbn_VJFY-14" value="Details" style="whiteSpace=wrap;html=1;" vertex="1" parent="1">
                    <mxGeometry x="762.5" y="350" width="87.5" height="50" as="geometry"/>
                </mxCell>
                <mxCell id="UIkB7LRc2GK9lbn_VJFY-15" value="" style="edgeStyle=none;html=1;" edge="1" parent="1" source="UIkB7LRc2GK9lbn_VJFY-16" target="UIkB7LRc2GK9lbn_VJFY-17">
                    <mxGeometry relative="1" as="geometry"/>
                </mxCell>
                <mxCell id="UIkB7LRc2GK9lbn_VJFY-26" value="" style="edgeStyle=none;html=1;" edge="1" parent="1" source="UIkB7LRc2GK9lbn_VJFY-16" target="UIkB7LRc2GK9lbn_VJFY-25">
                    <mxGeometry relative="1" as="geometry"/>
                </mxCell>
                <mxCell id="UIkB7LRc2GK9lbn_VJFY-16" value="Drought" style="whiteSpace=wrap;html=1;" vertex="1" parent="1">
                    <mxGeometry x="550" y="470" width="120" height="60" as="geometry"/>
                </mxCell>
                <mxCell id="UIkB7LRc2GK9lbn_VJFY-17" value="Details" style="whiteSpace=wrap;html=1;" vertex="1" parent="1">
                    <mxGeometry x="840" y="440" width="130" height="80" as="geometry"/>
                </mxCell>
                <mxCell id="UIkB7LRc2GK9lbn_VJFY-24" value="" style="edgeStyle=none;html=1;" edge="1" parent="1" source="UIkB7LRc2GK9lbn_VJFY-20" target="UIkB7LRc2GK9lbn_VJFY-23">
                    <mxGeometry relative="1" as="geometry"/>
                </mxCell>
                <mxCell id="UIkB7LRc2GK9lbn_VJFY-20" value="Refs" style="whiteSpace=wrap;html=1;" vertex="1" parent="1">
                    <mxGeometry x="350" y="735" width="120" height="50" as="geometry"/>
                </mxCell>
                <mxCell id="UIkB7LRc2GK9lbn_VJFY-23" value="Details" style="whiteSpace=wrap;html=1;" vertex="1" parent="1">
                    <mxGeometry x="550" y="730" width="120" height="60" as="geometry"/>
                </mxCell>
                <mxCell id="UIkB7LRc2GK9lbn_VJFY-25" value="Members" style="whiteSpace=wrap;html=1;" vertex="1" parent="1">
                    <mxGeometry x="730" y="570" width="120" height="60" as="geometry"/>
                </mxCell>
                <mxCell id="UIkB7LRc2GK9lbn_VJFY-27" value="Members" style="whiteSpace=wrap;html=1;" vertex="1" parent="1">
                    <mxGeometry x="710" y="210" width="120" height="60" as="geometry"/>
                </mxCell>
            </root>
        </mxGraphModel>
    </diagram>
</mxfile>